<svg width="27" height="16" viewBox="0 0 27 16" fill="none" xmlns="http://www.w3.org/2000/svg">
<path d="M16.9974 1.70898H10.0002V14.2846H16.9974V1.70898Z" fill="#FF5F00"/>
<path d="M10.4442 8.00198C10.4432 6.79106 10.7177 5.59578 11.2469 4.50661C11.776 3.41744 12.546 2.46292 13.4985 1.71527C12.3188 0.788086 10.902 0.211523 9.41017 0.0514814C7.9183 -0.108561 6.41151 0.154374 5.06199 0.810234C3.71248 1.46609 2.5747 2.48842 1.77869 3.76037C0.982676 5.03232 0.560547 6.50257 0.560547 8.00309C0.560547 9.50362 0.982676 10.9739 1.77869 12.2458C2.5747 13.5178 3.71248 14.5401 5.06199 15.1959C6.41151 15.8518 7.9183 16.1147 9.41017 15.9547C10.902 15.7947 12.3188 15.2181 13.4985 14.2909C12.5457 13.543 11.7756 12.5882 11.2464 11.4986C10.7172 10.409 10.4429 9.21328 10.4442 8.00198Z" fill="#EB001B"/>
<path d="M26.4394 7.99927C26.4393 9.4999 26.0171 10.9703 25.221 12.2422C24.4248 13.5142 23.2868 14.5365 21.9372 15.1923C20.5875 15.8481 19.0805 16.1108 17.5886 15.9506C16.0966 15.7903 14.6799 15.2135 13.5002 14.286C14.4524 13.5377 15.2221 12.5829 15.7514 11.4936C16.2807 10.4044 16.5557 9.2092 16.5557 7.99816C16.5557 6.78712 16.2807 5.5919 15.7514 4.50267C15.2221 3.41344 14.4524 2.45865 13.5002 1.71034C14.68 0.782744 16.097 0.205876 17.5891 0.0456875C19.0813 -0.114501 20.5884 0.148456 21.9382 0.804492C23.2879 1.46053 24.4259 2.48317 25.2218 3.75549C26.0178 5.0278 26.4398 6.49845 26.4394 7.99927Z" fill="#F79E1B"/>
<path d="M25.6682 12.9516V12.6939H25.7726V12.6428H25.5127V12.6962H25.6171V12.9539L25.6682 12.9516ZM26.1813 12.9516V12.6406H26.1124L26.0192 12.8628L25.9259 12.6406H25.8437V12.9516H25.8903V12.7184L25.9769 12.9205H26.0369L26.1236 12.7184V12.9539L26.1813 12.9516Z" fill="#F79E1B"/>
</svg>
