<svg width="24" height="24" viewBox="0 0 24 24" fill="none" xmlns="http://www.w3.org/2000/svg">
<path opacity="0.1" d="M16.1115 22.6H7.8887C6.15536 22.5974 4.49376 21.9077 3.2681 20.682C2.04245 19.4564 1.35272 17.7948 1.3501 16.0614V7.83865C1.35272 6.10531 2.04245 4.44371 3.2681 3.21806C4.49376 1.9924 6.15536 1.30267 7.8887 1.30005H16.1115C17.8448 1.30267 19.5064 1.9924 20.7321 3.21806C21.9577 4.44371 22.6475 6.10531 22.6501 7.83865V16.0614C22.6475 17.7948 21.9577 19.4564 20.7321 20.682C19.5064 21.9077 17.8448 22.5974 16.1115 22.6Z" fill="#99A1B7"/>
<path d="M16.15 22.75H7.85C6.10038 22.7474 4.42318 22.0512 3.18602 20.814C1.94885 19.5768 1.25264 17.8996 1.25 16.15V7.85C1.25264 6.10038 1.94885 4.42318 3.18602 3.18602C4.42318 1.94885 6.10038 1.25264 7.85 1.25H16.15C17.8996 1.25264 19.5768 1.94885 20.814 3.18602C22.0512 4.42318 22.7474 6.10038 22.75 7.85V16.15C22.7474 17.8996 22.0512 19.5768 20.814 20.814C19.5768 22.0512 17.8996 22.7474 16.15 22.75ZM7.85 2.75C6.49821 2.75264 5.20254 3.29081 4.24667 4.24667C3.29081 5.20254 2.75264 6.49821 2.75 7.85V16.15C2.75264 17.5018 3.29081 18.7975 4.24667 19.7533C5.20254 20.7092 6.49821 21.2474 7.85 21.25H16.15C17.5018 21.2474 18.7975 20.7092 19.7533 19.7533C20.7092 18.7975 21.2474 17.5018 21.25 16.15V7.85C21.2474 6.49821 20.7092 5.20254 19.7533 4.24667C18.7975 3.29081 17.5018 2.75264 16.15 2.75H7.85Z" fill="#99A1B7"/>
<path d="M7.25 11.7917V8.625H13.5833V11.7917" stroke="#99A1B7" stroke-width="1.5" stroke-linecap="round" stroke-linejoin="round"/>
<path d="M13.5834 8.62492H14.3751V5.45825H8.04175V8.62492" stroke="#99A1B7" stroke-width="1.5" stroke-linecap="round" stroke-linejoin="round"/>
<path d="M16.6141 12.7192C17.8508 13.9559 17.8508 15.9609 16.6141 17.1976C15.3774 18.4342 13.3724 18.4342 12.1357 17.1976C10.8991 15.9609 10.8991 13.9559 12.1357 12.7192C13.3724 11.4826 15.3774 11.4826 16.6141 12.7192" stroke="#99A1B7" stroke-width="1.5" stroke-linecap="round" stroke-linejoin="round"/>
<path d="M7.25 14.9583V18.1249H14.375" stroke="#99A1B7" stroke-width="1.5" stroke-linecap="round" stroke-linejoin="round"/>
<path d="M14.3749 11.7917H6.45825V14.9584H11.2083" stroke="#99A1B7" stroke-width="1.5" stroke-linecap="round" stroke-linejoin="round"/>
</svg>
