<svg width="24" height="24" viewBox="0 0 24 24" fill="none" xmlns="http://www.w3.org/2000/svg">
<path fill-rule="evenodd" clip-rule="evenodd" d="M6.62841 1H13.9912L20.2218 7.50365V20.1336C20.2218 21.7153 18.9452 23 17.3634 23H6.62841C5.05468 23 3.77002 21.7153 3.77002 20.1336V3.85839C3.76999 2.28466 5.05468 1 6.62841 1Z" fill="#00733B"/>
<path opacity="0.302" fill-rule="evenodd" clip-rule="evenodd" d="M13.9832 1V7.44744H20.2218L13.9832 1Z" fill="white"/>
<path d="M10.611 17.0191H9.54308L8.81244 15.7907L8.08177 17.0191H7.00586L8.27448 14.8834L7.15844 13.0286H8.23432L8.81241 13.9921L9.38247 13.0286H10.4584L9.35034 14.8914L10.611 17.0191ZM10.9883 17.0191V13.0286H12.008V16.152H13.7423V17.0191H10.9883V17.0191ZM15.4285 17.0673C15.027 17.0673 14.6737 16.9388 14.3686 16.6899C14.0715 16.4491 13.9029 16.144 13.8788 15.7827L14.754 15.5257C14.7781 15.7184 14.8584 15.887 14.9949 16.0155C15.1394 16.144 15.3 16.2082 15.4767 16.2082C15.6212 16.2082 15.7416 16.1761 15.838 16.1119C15.9263 16.0476 15.9745 15.9593 15.9745 15.8549C15.9745 15.7666 15.9343 15.6943 15.8621 15.6301C15.7898 15.5739 15.6934 15.5257 15.581 15.4856C15.4686 15.4454 15.3321 15.4053 15.1956 15.3732C15.0511 15.333 14.9066 15.2849 14.7701 15.2206C14.6256 15.1644 14.4971 15.0921 14.3847 15.0038C14.2642 14.9235 14.1759 14.8031 14.1036 14.6505C14.0314 14.506 13.9912 14.3294 13.9912 14.1286C13.9912 13.7995 14.1277 13.5265 14.4087 13.3097C14.6898 13.0848 15.027 12.9805 15.4204 12.9805C15.8139 12.9805 16.1591 13.0768 16.4481 13.2615C16.7372 13.4542 16.9219 13.7031 16.9941 14.0082L16.0788 14.3936C16.0387 14.225 15.9584 14.0885 15.846 13.9841C15.7335 13.8878 15.589 13.8316 15.4204 13.8316C15.2919 13.8316 15.1956 13.8637 15.1153 13.9119C15.043 13.9601 15.0109 14.0323 15.0109 14.1206C15.0109 14.2009 15.0591 14.2732 15.1555 14.3294C15.2518 14.3776 15.3803 14.4177 15.5248 14.4418C15.6693 14.4659 15.8299 14.506 15.9985 14.5623C16.1752 14.6265 16.3277 14.6907 16.4803 14.779C16.6248 14.8593 16.7452 14.9958 16.8416 15.1725C16.9459 15.3572 16.9941 15.574 16.9941 15.8228C16.9941 16.1922 16.8496 16.4973 16.5605 16.7221C16.2715 16.9469 15.8942 17.0673 15.4285 17.0673Z" fill="white"/>
</svg>
