<svg width="26" height="27" viewBox="0 0 26 27" fill="none" xmlns="http://www.w3.org/2000/svg">
<path fill-rule="evenodd" clip-rule="evenodd" d="M2 13.5C2 7.42428 6.92428 2.5 13 2.5C19.0757 2.5 24 7.42428 24 13.5C24 19.5757 19.0757 24.5 13 24.5C6.92428 24.5 2 19.5757 2 13.5ZM0 13.5C0 20.6803 5.81972 26.5 13 26.5C20.1803 26.5 26 20.6803 26 13.5C26 6.31972 20.1803 0.5 13 0.5C5.81972 0.5 0 6.31972 0 13.5ZM12.7226 9.49136C12.332 9.10091 11.6988 9.10104 11.3084 9.49164C10.9179 9.88225 10.9181 10.5154 11.3087 10.9059L13.9038 13.5L11.3087 16.0941C10.9181 16.4846 10.9179 17.1177 11.3084 17.5083C11.6988 17.8989 12.332 17.8991 12.7226 17.5086L16.0253 14.2072C16.2129 14.0197 16.3183 13.7653 16.3183 13.5C16.3183 13.2347 16.2129 12.9803 16.0253 12.7927L12.7226 9.49136Z" fill="white"/>
</svg>
