<svg width="59" height="18" viewBox="0 0 59 18" fill="none" xmlns="http://www.w3.org/2000/svg">
<path fill-rule="evenodd" clip-rule="evenodd" d="M15.9145 0.751953V0.759157C15.9072 0.759157 13.6271 0.751953 13.019 2.92017C12.4617 4.90831 10.8909 10.3973 10.8475 10.5486H10.4132C10.4132 10.5486 8.8062 4.93712 8.24159 2.91297C7.63355 0.74475 5.34617 0.751953 5.34617 0.751953H0.134399V17.2477H5.34617V7.45111H5.56332H5.78048L8.82068 17.2477H12.44L15.4802 7.45831H15.9145V17.2477H21.1262V0.751953H15.9145Z" fill="#4DB45E"/>
<path fill-rule="evenodd" clip-rule="evenodd" d="M34.7078 0.751953C34.7078 0.751953 33.1805 0.888818 32.4638 2.48077L28.7722 10.5486H28.3379V0.751953H23.1261V17.2477H28.0483C28.0483 17.2477 29.648 17.1037 30.3647 15.5189L33.9839 7.45111H34.4183V17.2477H39.63V0.751953H34.7078Z" fill="#4DB45E"/>
<path fill-rule="evenodd" clip-rule="evenodd" d="M42.3611 8.24414V17.2484H47.5729V11.9899H53.2189C55.68 11.9899 57.7648 10.4268 58.5393 8.24414H42.3611Z" fill="#4DB45E"/>
<path fill-rule="evenodd" clip-rule="evenodd" d="M53.219 0.751953H41.63C42.2091 3.89263 44.5761 6.41382 47.638 7.23501C48.3329 7.4223 49.064 7.52314 49.8168 7.52314H58.7492C58.8288 7.14857 58.865 6.76679 58.865 6.3706C58.865 3.26594 56.3388 0.751953 53.219 0.751953Z" fill="url(#paint0_linear_57728_58622)"/>
<defs>
<linearGradient id="paint0_linear_57728_58622" x1="41.6314" y1="4.13755" x2="58.865" y2="4.13755" gradientUnits="userSpaceOnUse">
<stop offset="0.3" stop-color="#00B4E6"/>
<stop offset="1" stop-color="#088CCB"/>
</linearGradient>
</defs>
</svg>
