<svg width="50" height="16" viewBox="0 0 50 16" fill="none" xmlns="http://www.w3.org/2000/svg">
<path d="M21.7618 15.6929H17.8271L20.2881 0.353516H24.2226L21.7618 15.6929Z" fill="#00579F"/>
<path d="M36.0252 0.729229C35.2491 0.418859 34.0182 0.0761719 32.4962 0.0761719C28.6106 0.0761719 25.8744 2.16482 25.8576 5.15097C25.8254 7.35414 27.8167 8.57783 29.306 9.31244C30.8282 10.0631 31.3457 10.5531 31.3457 11.2222C31.3302 12.2498 30.1156 12.7235 28.9828 12.7235C27.4119 12.7235 26.5702 12.4793 25.2911 11.9075L24.773 11.6624L24.2224 15.1058C25.1452 15.5296 26.8454 15.9057 28.6106 15.9222C32.7391 15.9222 35.4269 13.8658 35.4587 10.6836C35.4744 8.93744 34.4229 7.59944 32.156 6.5061C30.7798 5.80424 29.9371 5.33099 29.9371 4.61286C29.9532 3.96002 30.6499 3.29135 32.2033 3.29135C33.4825 3.2586 34.4223 3.56854 35.1342 3.87869L35.4901 4.04157L36.0252 0.729229Z" fill="#00579F"/>
<path d="M41.2546 10.2587C41.5787 9.37745 42.8255 5.96685 42.8255 5.96685C42.8092 5.9996 43.1489 5.06936 43.3432 4.49829L43.6182 5.82002C43.6182 5.82002 44.3633 9.49175 44.5251 10.2587C43.9101 10.2587 42.0318 10.2587 41.2546 10.2587ZM46.1114 0.353516H43.068C42.1295 0.353516 41.4164 0.630701 41.0115 1.62623L35.1671 15.6926H39.2956C39.2956 15.6926 39.9753 13.7994 40.1214 13.3917C40.5743 13.3917 44.5905 13.3917 45.1731 13.3917C45.2861 13.9302 45.6426 15.6926 45.6426 15.6926H49.2857L46.1114 0.353516Z" fill="#00579F"/>
<path d="M14.5409 0.353516L10.6876 10.8135L10.2665 8.69208C9.55415 6.24425 7.31993 3.58475 4.82666 2.26237L8.35614 15.6766H12.5169L18.7015 0.353516H14.5409Z" fill="#00579F"/>
<path d="M7.10943 0.353516H0.778996L0.714233 0.663452C5.65236 1.93638 8.92279 5.00473 10.2665 8.69273L8.8903 1.64293C8.66374 0.663235 7.96748 0.385832 7.10943 0.353516Z" fill="#FAA61A"/>
</svg>
