<svg width="10" height="10" viewBox="0 0 10 10" fill="none" xmlns="http://www.w3.org/2000/svg">
<path opacity="0.3" fill-rule="evenodd" clip-rule="evenodd" d="M5.00229 0.53418C4.75387 0.53418 4.55249 0.73556 4.55249 0.983975L4.55249 8.79074C4.55249 9.03916 4.75387 9.24054 5.00229 9.24054C5.2507 9.24054 5.45208 9.03916 5.45208 8.79074L5.45208 0.983975C5.45208 0.73556 5.2507 0.53418 5.00229 0.53418Z" fill="#F8285A"/>
<path fill-rule="evenodd" clip-rule="evenodd" d="M8.78996 5.23428C8.61431 5.05863 8.32951 5.05863 8.15386 5.23428L5.00223 8.3859L1.85061 5.23428C1.67496 5.05863 1.39016 5.05863 1.21451 5.23428C1.03885 5.40994 1.03885 5.69473 1.21451 5.87039L4.68418 9.34006C4.85984 9.51572 5.14463 9.51572 5.32029 9.34006L8.78996 5.87039C8.96562 5.69473 8.96562 5.40994 8.78996 5.23428Z" fill="#F8285A"/>
</svg>
