<svg width="22" height="30" viewBox="0 0 22 30" fill="none" xmlns="http://www.w3.org/2000/svg">
<g clip-path="url(#clip0_58589_12883)">
<path d="M17.4938 0.746094C17.2386 0.746094 17.0318 0.951575 17.0318 1.20505V17.181C17.0318 20.384 16.3131 22.4006 15.2211 23.6145C14.138 24.8185 12.6181 25.3088 10.8341 25.3088C9.07294 25.3088 7.57534 24.8195 6.50794 23.6168C5.43055 22.4029 4.72205 20.3854 4.72205 17.181V11.9109C4.72205 11.7891 4.67325 11.6722 4.58643 11.5861C4.4996 11.5 4.38187 11.4518 4.25918 11.452C3.02476 11.4541 2.45282 11.4573 2.12081 11.4591L2.11897 11.4592C1.9317 11.4602 1.82072 11.4608 1.70997 11.4606C1.55024 11.4602 1.39051 11.4581 1.00126 11.4529L0.700249 11.449C0.576662 11.4474 0.457575 11.495 0.369605 11.5812C0.281636 11.6675 0.232117 11.7851 0.232117 11.9079V17.0984C0.232117 21.5244 1.34575 24.5806 3.27565 26.5283C5.20662 28.4771 7.87968 29.2405 10.8341 29.2405C13.7883 29.2405 16.4512 28.477 18.3717 26.5273C20.2905 24.5793 21.3929 21.4774 21.3929 17.0984V1.20505C21.3929 0.951575 21.1861 0.746094 20.9309 0.746094H17.4938Z" fill="#262626"/>
<path d="M0.386135 6.8955C0.29158 6.81144 0.232117 6.68928 0.232117 6.55341V1.20505C0.232117 0.951575 0.438985 0.746094 0.69417 0.746094H4.25999C4.51518 0.746094 4.72205 0.951575 4.72205 1.20505V6.55463C4.72205 6.69055 4.66256 6.81268 4.56803 6.89672V7.00778L4.33223 7.00801C4.30884 7.01166 4.28486 7.01356 4.26044 7.01359C3.01728 7.01479 2.44778 7.01657 2.11622 7.01761C1.93565 7.01817 1.82488 7.01851 1.71494 7.01842C1.54533 7.01828 1.37573 7.0171 0.946755 7.01413L0.690959 7.01235C0.665072 7.01217 0.639695 7.00988 0.614992 7.00565L0.386135 7.00389V6.8955Z" fill="#262626"/>
</g>
<defs>
<clipPath id="clip0_58589_12883">
<rect width="22" height="30" fill="white"/>
</clipPath>
</defs>
</svg>
