<svg width="26" height="26" viewBox="0 0 26 26" fill="none" xmlns="http://www.w3.org/2000/svg">
<path fill-rule="evenodd" clip-rule="evenodd" d="M17.9033 0.0947316C18.4012 -0.144178 18.9985 0.0658039 19.2374 0.56374L19.9044 1.95379C20.1433 2.45172 19.9333 3.04905 19.4354 3.28796C18.9374 3.52687 18.3401 3.31689 18.1012 2.81896L17.4342 1.42891C17.1953 0.930974 17.4053 0.333642 17.9033 0.0947316ZM24.4487 3.02205C24.8393 2.63153 24.8393 1.99836 24.4487 1.60784C24.0582 1.21731 23.425 1.21731 23.0345 1.60783L21.8258 2.81656C21.4352 3.20708 21.4352 3.84025 21.8258 4.23077C22.2163 4.6213 22.8495 4.6213 23.24 4.23078L24.4487 3.02205ZM11.1046 5.78739C6.07357 5.78739 1.99512 9.86585 1.99512 14.8969C1.99512 19.9279 6.07357 24.0063 11.1046 24.0063C16.1356 24.0063 20.2141 19.9279 20.2141 14.8969C20.2141 12.3979 19.2078 10.1339 17.5783 8.48804C17.5671 8.47777 17.556 8.4672 17.5452 8.45633C17.5343 8.44545 17.5237 8.43439 17.5135 8.42315C15.8676 6.79368 13.6036 5.78739 11.1046 5.78739ZM22.2141 14.8969C22.2141 12.1891 21.2454 9.70767 19.6356 7.7801L20.5733 6.8424C20.9638 6.45188 20.9638 5.81871 20.5733 5.42819C20.1828 5.03766 19.5496 5.03766 19.1591 5.42819L18.2214 6.36589C16.2938 4.75611 13.8123 3.78739 11.1046 3.78739C4.969 3.78739 -0.00488281 8.76128 -0.00488281 14.8969C-0.00488281 21.0325 4.969 26.0063 11.1046 26.0063C17.2402 26.0063 22.2141 21.0325 22.2141 14.8969ZM24.2082 6.11443C23.7197 5.85665 23.1148 6.04363 22.857 6.53206C22.5992 7.02049 22.7862 7.62542 23.2747 7.8832L24.5383 8.55015C25.0268 8.80793 25.6317 8.62095 25.8895 8.13252C26.1473 7.64409 25.9603 7.03916 25.4719 6.78138L24.2082 6.11443Z" fill="#EF3900"/>
</svg>
