<svg width="26" height="27" viewBox="0 0 26 27" fill="none" xmlns="http://www.w3.org/2000/svg">
<path fill-rule="evenodd" clip-rule="evenodd" d="M24 13.5C24 7.42428 19.0757 2.5 13 2.5C6.92428 2.5 2 7.42428 2 13.5C2 19.5757 6.92428 24.5 13 24.5C19.0757 24.5 24 19.5757 24 13.5ZM26 13.5C26 20.6803 20.1803 26.5 13 26.5C5.81971 26.5 0 20.6803 0 13.5C0 6.31972 5.81971 0.5 13 0.5C20.1803 0.5 26 6.31972 26 13.5ZM13.2774 9.49136C13.668 9.10091 14.3012 9.10104 14.6916 9.49164C15.0821 9.88225 15.0819 10.5154 14.6913 10.9059L12.0962 13.5L14.6913 16.0941C15.0819 16.4846 15.0821 17.1177 14.6916 17.5083C14.3012 17.8989 13.668 17.8991 13.2774 17.5086L9.9747 14.2072C9.78708 14.0197 9.68167 13.7653 9.68167 13.5C9.68167 13.2347 9.78708 12.9803 9.9747 12.7927L13.2774 9.49136Z" fill="white"/>
</svg>
