<svg width="20" height="20" viewBox="0 0 20 20" fill="none" xmlns="http://www.w3.org/2000/svg">
<rect width="20" height="20" rx="10" fill="#171F32"/>
<path fill-rule="evenodd" clip-rule="evenodd" d="M14.7647 7.41304C14.8388 7.18004 14.7647 7.01059 14.4364 7.01059H13.3455C13.0702 7.01059 12.9431 7.15886 12.8689 7.31772C12.8689 7.31772 12.3076 8.67334 11.5239 9.55237C11.2697 9.80655 11.1532 9.89128 11.0156 9.89128C10.9414 9.89128 10.8461 9.80655 10.8461 9.57356V7.40245C10.8461 7.12709 10.7614 7 10.5284 7H8.81267C8.64322 7 8.53731 7.12709 8.53731 7.25418C8.53731 7.51895 8.92917 7.58249 8.97154 8.32385V9.93364C8.97154 10.2831 8.90799 10.3467 8.77031 10.3467C8.39963 10.3467 7.49942 8.98047 6.95929 7.42363C6.85338 7.1165 6.74748 7 6.47212 7H5.37068C5.05295 7 5 7.14827 5 7.30713C5 7.59308 5.37068 9.03343 6.72629 10.9398C7.62651 12.2424 8.90799 12.9414 10.0624 12.9414C10.7614 12.9414 10.8461 12.7826 10.8461 12.5178V11.5328C10.8461 11.2151 10.9096 11.1622 11.1321 11.1622C11.2909 11.1622 11.5769 11.2469 12.2229 11.8718C12.9643 12.6131 13.0913 12.952 13.5044 12.952H14.5952C14.913 12.952 15.0612 12.7931 14.9765 12.486C14.8812 12.1789 14.5211 11.7341 14.0551 11.2045C13.8009 10.908 13.4197 10.5797 13.3032 10.4208C13.1443 10.209 13.1867 10.1243 13.3032 9.93364C13.2926 9.93364 14.627 8.04848 14.7647 7.41304Z" fill="#2787F5"/>
</svg>
