<svg width="24" height="24" viewBox="0 0 24 24" fill="none" xmlns="http://www.w3.org/2000/svg">
<path opacity="0.1" d="M16.1115 22.6H7.8887C6.15536 22.5974 4.49376 21.9077 3.2681 20.682C2.04245 19.4564 1.35272 17.7948 1.3501 16.0614V7.83865C1.35272 6.10531 2.04245 4.44371 3.2681 3.21806C4.49376 1.9924 6.15536 1.30267 7.8887 1.30005H16.1115C17.8448 1.30267 19.5064 1.9924 20.7321 3.21806C21.9577 4.44371 22.6475 6.10531 22.6501 7.83865V16.0614C22.6475 17.7948 21.9577 19.4564 20.7321 20.682C19.5064 21.9077 17.8448 22.5974 16.1115 22.6Z" fill="#056EE9"/>
<path d="M16.15 22.75H7.85C6.10038 22.7474 4.42318 22.0512 3.18602 20.814C1.94885 19.5768 1.25264 17.8996 1.25 16.15V7.85C1.25264 6.10038 1.94885 4.42318 3.18602 3.18602C4.42318 1.94885 6.10038 1.25264 7.85 1.25H16.15C17.8996 1.25264 19.5768 1.94885 20.814 3.18602C22.0512 4.42318 22.7474 6.10038 22.75 7.85V16.15C22.7474 17.8996 22.0512 19.5768 20.814 20.814C19.5768 22.0512 17.8996 22.7474 16.15 22.75ZM7.85 2.75C6.49821 2.75264 5.20254 3.29081 4.24667 4.24667C3.29081 5.20254 2.75264 6.49821 2.75 7.85V16.15C2.75264 17.5018 3.29081 18.7975 4.24667 19.7533C5.20254 20.7092 6.49821 21.2474 7.85 21.25H16.15C17.5018 21.2474 18.7975 20.7092 19.7533 19.7533C20.7092 18.7975 21.2474 17.5018 21.25 16.15V7.85C21.2474 6.49821 20.7092 5.20254 19.7533 4.24667C18.7975 3.29081 17.5018 2.75264 16.15 2.75H7.85Z" fill="#056EE9"/>
<path fill-rule="evenodd" clip-rule="evenodd" d="M13.0384 5.47783C13.1694 5.61287 13.2501 5.79703 13.2501 6.00003V17.25H15.0001C15.4143 17.25 15.7501 17.5858 15.7501 18C15.7501 18.4142 15.4143 18.75 15.0001 18.75H12.5001H10.0001C9.58585 18.75 9.25006 18.4142 9.25006 18C9.25006 17.5858 9.58585 17.25 10.0001 17.25H11.7501V7.63064L9.48811 9.56946C9.17361 9.83902 8.70014 9.8026 8.43057 9.48811C8.161 9.17361 8.19743 8.70014 8.51192 8.43057L12.0119 5.43057C12.1643 5.29994 12.3541 5.24117 12.5398 5.25107C12.6379 5.25619 12.731 5.28016 12.8156 5.31943C12.897 5.35713 12.9728 5.41005 13.0384 5.47783Z" fill="#056EE9"/>
</svg>
