<svg width="24" height="24" viewBox="0 0 24 24" fill="none" xmlns="http://www.w3.org/2000/svg">
<path opacity="0.1" d="M16.1114 22.6H7.88858C6.15524 22.5974 4.49364 21.9077 3.26798 20.682C2.04232 19.4564 1.3526 17.7948 1.34998 16.0614V7.83865C1.3526 6.10531 2.04232 4.44371 3.26798 3.21806C4.49364 1.9924 6.15524 1.30267 7.88858 1.30005H16.1114C17.8447 1.30267 19.5063 1.9924 20.732 3.21806C21.9576 4.44371 22.6474 6.10531 22.65 7.83865V16.0614C22.6474 17.7948 21.9576 19.4564 20.732 20.682C19.5063 21.9077 17.8447 22.5974 16.1114 22.6Z" fill="#056EE9"/>
<path d="M16.15 22.75H7.85C6.10038 22.7474 4.42318 22.0512 3.18602 20.814C1.94885 19.5768 1.25264 17.8996 1.25 16.15V7.85C1.25264 6.10038 1.94885 4.42318 3.18602 3.18602C4.42318 1.94885 6.10038 1.25264 7.85 1.25H16.15C17.8996 1.25264 19.5768 1.94885 20.814 3.18602C22.0512 4.42318 22.7474 6.10038 22.75 7.85V16.15C22.7474 17.8996 22.0512 19.5768 20.814 20.814C19.5768 22.0512 17.8996 22.7474 16.15 22.75ZM7.85 2.75C6.49821 2.75264 5.20254 3.29081 4.24667 4.24667C3.29081 5.20254 2.75264 6.49821 2.75 7.85V16.15C2.75264 17.5018 3.29081 18.7975 4.24667 19.7533C5.20254 20.7092 6.49821 21.2474 7.85 21.25H16.15C17.5018 21.2474 18.7975 20.7092 19.7533 19.7533C20.7092 18.7975 21.2474 17.5018 21.25 16.15V7.85C21.2474 6.49821 20.7092 5.20254 19.7533 4.24667C18.7975 3.29081 17.5018 2.75264 16.15 2.75H7.85Z" fill="#056EE9"/>
<path d="M7.25 11.7917V8.625H13.5833V11.7917" stroke="#056EE9" stroke-width="1.5" stroke-linecap="round" stroke-linejoin="round"/>
<path d="M13.5833 8.62498H14.375V5.45831H8.04166V8.62498" stroke="#056EE9" stroke-width="1.5" stroke-linecap="round" stroke-linejoin="round"/>
<path d="M16.6141 12.7192C17.8508 13.9558 17.8508 15.9609 16.6141 17.1975C15.3775 18.4342 13.3725 18.4342 12.1358 17.1975C10.8991 15.9609 10.8991 13.9558 12.1358 12.7192C13.3725 11.4825 15.3775 11.4825 16.6141 12.7192" stroke="#056EE9" stroke-width="1.5" stroke-linecap="round" stroke-linejoin="round"/>
<path d="M7.25 14.9583V18.125H14.375" stroke="#056EE9" stroke-width="1.5" stroke-linecap="round" stroke-linejoin="round"/>
<path d="M14.375 11.7917H6.45834V14.9584H11.2083" stroke="#056EE9" stroke-width="1.5" stroke-linecap="round" stroke-linejoin="round"/>
</svg>
