<svg width="10" height="10" viewBox="0 0 10 10" fill="none" xmlns="http://www.w3.org/2000/svg">
<path opacity="0.3" fill-rule="evenodd" clip-rule="evenodd" d="M5.00229 9.4715C4.75387 9.4715 4.55249 9.27012 4.55249 9.0217L4.55249 1.21493C4.55249 0.966517 4.75387 0.765137 5.00229 0.765137C5.2507 0.765137 5.45208 0.966517 5.45208 1.21493L5.45208 9.0217C5.45208 9.27012 5.2507 9.4715 5.00229 9.4715Z" fill="#17C653"/>
<path fill-rule="evenodd" clip-rule="evenodd" d="M8.78996 4.7717C8.61431 4.94736 8.32951 4.94736 8.15386 4.7717L5.00223 1.62008L1.85061 4.7717C1.67496 4.94736 1.39016 4.94736 1.21451 4.7717C1.03885 4.59605 1.03885 4.31125 1.21451 4.1356L4.68418 0.665922C4.85984 0.490266 5.14463 0.490266 5.32029 0.665922L8.78996 4.1356C8.96562 4.31125 8.96562 4.59605 8.78996 4.7717Z" fill="#17C653"/>
</svg>
