<svg width="138" height="42" viewBox="0 0 138 42" fill="none" xmlns="http://www.w3.org/2000/svg">
<path d="M18.4938 4.24658C18.2386 4.24658 18.0318 4.45206 18.0318 4.70554V20.6815C18.0318 23.8845 17.3131 25.9011 16.2211 27.115C15.138 28.319 13.6181 28.8093 11.8341 28.8093C10.0729 28.8093 8.57534 28.32 7.50794 27.1173C6.43055 25.9034 5.72205 23.8859 5.72205 20.6815V15.4114C5.72205 15.2896 5.67325 15.1727 5.58643 15.0866C5.4996 15.0005 5.38187 14.9523 5.25918 14.9525C4.02476 14.9546 3.45282 14.9578 3.12081 14.9596L3.11897 14.9596C2.9317 14.9607 2.82072 14.9613 2.70997 14.961C2.55024 14.9607 2.39051 14.9586 2.00126 14.9534L1.70025 14.9495C1.57666 14.9478 1.45758 14.9955 1.36961 15.0817C1.28164 15.168 1.23212 15.2856 1.23212 15.4084V20.5989C1.23212 25.0249 2.34575 28.0811 4.27565 30.0288C6.20662 31.9775 8.87968 32.741 11.8341 32.741C14.7883 32.741 17.4512 31.9775 19.3717 30.0278C21.2905 28.0798 22.3929 24.9779 22.3929 20.5989V4.70554C22.3929 4.45206 22.1861 4.24658 21.9309 4.24658H18.4938Z" fill="#262626"/>
<path d="M1.38613 10.396C1.29158 10.3119 1.23212 10.1898 1.23212 10.0539V4.70554C1.23212 4.45206 1.43899 4.24658 1.69417 4.24658H5.25999C5.51518 4.24658 5.72205 4.45206 5.72205 4.70554V10.0551C5.72205 10.191 5.66256 10.3132 5.56803 10.3972V10.5083L5.33223 10.5085C5.30884 10.5121 5.28486 10.5141 5.26044 10.5141C4.01728 10.5153 3.44778 10.5171 3.11622 10.5181H3.11558C2.93502 10.5187 2.82488 10.519 2.71494 10.5189C2.54533 10.5188 2.37573 10.5176 1.94675 10.5146L1.69096 10.5128C1.66507 10.5127 1.63969 10.5104 1.61499 10.5061L1.38613 10.5044V10.396Z" fill="#262626"/>
<path d="M31.4585 13.7544C33.324 12.075 35.4408 10.7693 38.2156 10.7693C40.5096 10.7693 42.2511 11.4877 43.4024 12.9472C44.5362 14.3847 45.0367 16.4667 45.0367 19.0715V31.7864C45.0367 32.0399 44.8299 32.2453 44.5747 32.2453H41.0514C40.7962 32.2453 40.5893 32.0399 40.5893 31.7864V19.5255C40.5893 17.6768 40.2896 16.4571 39.7338 15.705C39.2027 14.9862 38.3775 14.6178 37.0986 14.6178C35.193 14.6178 33.867 15.5244 31.846 17.4504V31.7864C31.846 32.0399 31.6391 32.2453 31.384 32.2453H27.8613C27.6061 32.2453 27.3992 32.0399 27.3992 31.7864V11.7233C27.3992 11.4698 27.6061 11.2643 27.8613 11.2643H30.7827C31.0195 11.2643 31.2179 11.4422 31.2423 11.6761L31.4585 13.7544Z" fill="#262626"/>
<path d="M51.3631 11.2643C51.1079 11.2643 50.9011 11.4698 50.9011 11.7233V31.7864C50.9011 32.0398 51.1079 32.2453 51.3631 32.2453H54.8864C55.1416 32.2453 55.3485 32.0398 55.3485 31.7864V11.7233C55.3485 11.4698 55.1416 11.2643 54.8864 11.2643H51.3631Z" fill="#262626"/>
<path d="M63.1363 5.65038C62.8947 5.65038 62.6939 5.83524 62.6756 6.07451L62.276 11.2906L59.4117 11.4721C59.1684 11.4875 58.979 11.688 58.979 11.9301V14.4892C58.979 14.7427 59.1859 14.9482 59.4411 14.9482H62.0723V25.5941C62.0723 27.6195 62.4542 29.4142 63.4821 30.7084C64.5272 32.0244 66.1728 32.741 68.5066 32.741C69.8718 32.741 71.3467 32.3496 72.5154 31.9753C72.7496 31.9004 72.8835 31.6563 72.8201 31.4202L72.1326 28.861C72.0992 28.7367 72.0147 28.632 71.8999 28.5725C71.785 28.513 71.6503 28.5041 71.5285 28.548C70.8405 28.796 69.964 29.0571 69.3229 29.0571C68.2139 29.0571 67.5685 28.7385 67.1777 28.227C66.7653 27.6873 66.5629 26.8415 66.5629 25.6351V14.9482H71.7292C71.9844 14.9482 72.1913 14.7427 72.1913 14.4892V11.7233C72.1913 11.4698 71.9844 11.2643 71.7292 11.2643H66.5629V6.10933C66.5629 5.85586 66.356 5.65038 66.1008 5.65038H63.1363Z" fill="#262626"/>
<path fill-rule="evenodd" clip-rule="evenodd" d="M86.4662 10.7693C84.0942 10.7693 81.8736 11.8935 80.0438 13.2671L79.8354 11.6645C79.8056 11.4357 79.6094 11.2643 79.3771 11.2643H76.4557C76.2005 11.2643 75.9937 11.4698 75.9937 11.7233V40.2495C75.9937 40.503 76.2005 40.7085 76.4557 40.7085H79.9784C80.2336 40.7085 80.4405 40.503 80.4405 40.2495V33.479L80.4403 33.4679L80.3771 30.8766C82.1099 32.0347 83.8851 32.741 85.6931 32.741C90.7665 32.741 95.1781 28.4792 95.1781 21.466C95.1781 18.2866 94.4449 15.6152 92.9702 13.728C91.4831 11.8249 89.2799 10.7693 86.4662 10.7693ZM80.4405 27.1069V17.012C82.4083 15.3473 84.0164 14.5352 85.5643 14.5352C87.4051 14.5352 88.6282 15.2168 89.4135 16.3716C90.2197 17.5572 90.6019 19.2971 90.6019 21.466C90.6019 23.8693 89.9867 25.7546 89.0006 27.0275C88.0212 28.2917 86.6613 28.9745 85.0918 28.9745C83.8801 28.9745 82.2021 28.4774 80.4405 27.1069Z" fill="#262626"/>
<path fill-rule="evenodd" clip-rule="evenodd" d="M107.52 10.7693C104.043 10.7693 101.034 12.2225 99.0687 13.4395C98.857 13.5706 98.7883 13.8451 98.9135 14.0594L100.289 16.4123C100.353 16.5216 100.459 16.5999 100.583 16.6288C100.707 16.6576 100.837 16.6344 100.943 16.5646C102.545 15.5112 104.645 14.4942 106.919 14.4942C108.509 14.4942 109.428 15.0572 109.974 15.8522C110.479 16.5875 110.702 17.5772 110.745 18.6614C106.498 19.1422 103.353 19.9234 101.245 21.1471C100.148 21.7834 99.3187 22.547 98.7651 23.4619C98.2103 24.3787 97.9492 25.4201 97.9492 26.5849C97.9492 28.4987 98.6513 30.0512 99.8474 31.1213C101.038 32.1862 102.68 32.741 104.512 32.741C107.05 32.741 109.292 31.5731 111.189 30.1579L111.401 31.8432C111.43 32.0729 111.626 32.2453 111.859 32.2453H114.781C115.036 32.2453 115.243 32.0399 115.243 31.7864V19.4845C115.243 16.9319 114.696 14.7474 113.426 13.194C112.143 11.6234 110.182 10.7693 107.52 10.7693ZM110.753 26.6628C108.834 28.2867 107.342 29.0981 105.543 29.0981C104.575 29.0981 103.766 28.8742 103.208 28.4381C102.668 28.0156 102.31 27.3517 102.31 26.3371C102.31 25.7727 102.442 25.2767 102.724 24.8311C103.009 24.3821 103.464 23.9577 104.151 23.5672C105.469 22.8185 107.577 22.2298 110.753 21.8204V26.6628Z" fill="#262626"/>
<path d="M117.31 11.4173H117.194L117.239 11.5242C117.182 11.641 117.177 11.7772 117.228 11.8988L125.542 31.8491L125.122 33.1698C124.283 35.5842 122.892 37.1482 120.834 37.1482C120.392 37.1482 119.805 37.0017 119.373 36.8775C119.253 36.8429 119.124 36.8582 119.015 36.9199C118.906 36.9817 118.827 37.0846 118.797 37.2051L118.109 39.8885C118.05 40.1171 118.176 40.3526 118.399 40.4331C119.136 40.6987 120.006 40.8731 121.006 40.8731C123.239 40.8731 124.945 40.0677 126.275 38.7352C127.59 37.4179 128.52 35.6019 129.259 33.5958L129.26 33.5933L137.123 11.8786C137.168 11.7549 137.157 11.6191 137.095 11.5049L137.127 11.4173H137.033C136.946 11.3206 136.821 11.2643 136.688 11.2643H133.251C133.053 11.2643 132.876 11.3905 132.813 11.5777L129.075 22.6826L129.072 22.6913C128.862 23.3594 128.647 24.0628 128.43 24.7764C128.174 25.6133 127.915 26.4641 127.653 27.2884C127.113 25.7444 126.56 24.205 125.994 22.6703L121.739 11.5601C121.671 11.382 121.499 11.2643 121.307 11.2643H117.655C117.522 11.2643 117.397 11.3207 117.31 11.4173Z" fill="#262626"/>
<path fill-rule="evenodd" clip-rule="evenodd" d="M48.3252 1.79644C48.4579 1.71209 48.6248 1.70078 48.7679 1.76643C48.9205 1.83645 49.0597 1.90425 49.1939 1.96959C49.5584 2.14703 49.8855 2.3063 50.3409 2.44247C50.95 2.62459 51.788 2.76014 53.1675 2.76014C54.1045 2.76014 54.8458 3.03196 55.3534 3.53319C55.8596 4.03302 56.0791 4.70749 56.0791 5.40739C56.0791 6.94082 54.7618 8.05403 53.1675 8.05403C51.8111 8.05403 50.5442 7.15894 49.6442 6.04574C48.7384 4.92528 48.1121 3.47401 48.1121 2.18308C48.1121 2.02653 48.1924 1.88079 48.3252 1.79644Z" fill="#389E0D"/>
</svg>
