<svg width="24" height="24" viewBox="0 0 24 24" fill="none" xmlns="http://www.w3.org/2000/svg">
<circle opacity="0.1" cx="12" cy="12" r="10" fill="#99A1B7"/>
<path d="M22.01 12.0049C22.01 17.5305 17.5306 22.0099 12.005 22.0099" stroke="#99A1B7" stroke-width="1.5" stroke-linecap="round" stroke-linejoin="round"/>
<path d="M2 12.005C2 6.47938 6.47938 2 12.005 2" stroke="#99A1B7" stroke-width="1.5" stroke-linecap="round" stroke-linejoin="round"/>
<path d="M2 12.0049C2.00016 13.1768 2.2086 14.3394 2.6156 15.4384C2.80173 15.9488 3.32652 16.2528 3.86188 16.1603L4.95819 15.967C5.84427 15.8108 6.44661 14.9798 6.31937 14.089L5.98941 11.7793C5.92553 11.3322 5.68298 10.9301 5.31726 10.665C4.95155 10.3999 4.49394 10.2946 4.04912 10.373L2.09193 10.7181" stroke="#99A1B7" stroke-width="1.5" stroke-linecap="round" stroke-linejoin="round"/>
<path d="M22.01 12.005C22.01 6.47938 17.5306 2 12.005 2" stroke="#99A1B7" stroke-width="1.5" stroke-linecap="round" stroke-linejoin="round"/>
<path d="M22.01 12.0049C22.0099 13.1768 21.8014 14.3394 21.3944 15.4384C21.2083 15.9488 20.6835 16.2528 20.1481 16.1603L19.0518 15.967C18.1658 15.8108 17.5634 14.9798 17.6907 14.089L18.0206 11.7793C18.0845 11.3322 18.327 10.9301 18.6928 10.665C19.0585 10.3999 19.5161 10.2946 19.9609 10.373L21.9181 10.7181" stroke="#99A1B7" stroke-width="1.5" stroke-linecap="round" stroke-linejoin="round"/>
<path d="M13.6642 12.5507C13.6609 12.5507 13.6578 12.5527 13.6566 12.5558C13.6553 12.5589 13.656 12.5625 13.6583 12.5649C13.6607 12.5673 13.6643 12.568 13.6674 12.5667C13.6705 12.5654 13.6725 12.5624 13.6725 12.559C13.6727 12.5568 13.6718 12.5546 13.6703 12.553C13.6687 12.5514 13.6665 12.5506 13.6642 12.5507" stroke="#99A1B7" stroke-width="1.5" stroke-linecap="round" stroke-linejoin="round"/>
<path d="M10.3457 12.5541C10.3424 12.5541 10.3394 12.5562 10.3381 12.5593C10.3368 12.5624 10.3375 12.5659 10.3399 12.5683C10.3422 12.5707 10.3458 12.5714 10.3489 12.5701C10.352 12.5688 10.354 12.5658 10.354 12.5624C10.3542 12.5602 10.3534 12.558 10.3518 12.5564C10.3502 12.5548 10.348 12.554 10.3457 12.5541" stroke="#99A1B7" stroke-width="1.5" stroke-linecap="round" stroke-linejoin="round"/>
</svg>
